<svg xmlns="http://www.w3.org/2000/svg" width="256" height="256" fill="none" viewBox="0 0 256 256"><path fill="#00f" fill-rule="evenodd" d="M157 34.5C157 18.208 143.792 5 127.5 5S98 18.208 98 34.5V98H34.5C18.208 98 5 111.208 5 127.5S18.208 157 34.5 157H98v64.5c0 16.292 13.208 29.5 29.5 29.5s29.5-13.208 29.5-29.5V157h64.5c16.292 0 29.5-13.208 29.5-29.5S237.792 98 221.5 98H157zM128 151c12.703 0 23-10.297 23-23s-10.297-23-23-23-23 10.297-23 23 10.297 23 23 23" clip-rule="evenodd"/><path fill="#0f0" d="M140 34.5c0-6.904-5.596-12.5-12.5-12.5S115 27.596 115 34.5v74.524A22.9 22.9 0 0 1 128 105a22.9 22.9 0 0 1 12 3.375zm6.976 80.5A22.9 22.9 0 0 1 151 128a22.9 22.9 0 0 1-3.375 12H221.5c6.904 0 12.5-5.596 12.5-12.5s-5.596-12.5-12.5-12.5zM140 147.625A22.9 22.9 0 0 1 128 151a22.9 22.9 0 0 1-13-4.024V221.5c0 6.904 5.596 12.5 12.5 12.5s12.5-5.596 12.5-12.5zM108.375 140A22.9 22.9 0 0 1 105 128a22.9 22.9 0 0 1 4.024-13H34.5c-6.904 0-12.5 5.596-12.5 12.5S27.596 140 34.5 140z"/><g filter="url(#a)"><circle cx="128.12" cy="128.12" r="5.12" fill="#fe0000"/></g><defs><filter id="a" width="23.04" height="23.04" x="116.6" y="121.72" color-interpolation-filters="sRGB" filterUnits="userSpaceOnUse"><feFlood flood-opacity="0" result="BackgroundImageFix"/><feColorMatrix in="SourceAlpha" result="hardAlpha" values="0 0 0 0 0 0 0 0 0 0 0 0 0 0 0 0 0 0 127 0"/><feOffset dy="5.12"/><feGaussianBlur stdDeviation="3.2"/><feColorMatrix values="0 0 0 0 0 0 0 0 0 0 0 0 0 0 0 0 0 0 0.5 0"/><feBlend in2="BackgroundImageFix" result="effect1_dropShadow_3519_138"/><feBlend in="SourceGraphic" in2="effect1_dropShadow_3519_138" result="shape"/></filter></defs></svg>