<svg xmlns="http://www.w3.org/2000/svg" width="256" height="256" fill="none" viewBox="0 0 256 256"><path fill="#0f0" stroke="#00f" stroke-width="17" d="m206.5 44 .001-19.19-14.212 12.895-89 80.744-9.424 8.55 11.506 5.432 44.149 20.843.198.094.202.083 44.846 18.412 11.728 4.815.001-12.678z"/><g filter="url(#a)"><circle cx="62" cy="62" r="70.5" fill="#06b231" stroke="#00f" stroke-width="17" transform="matrix(1 0 0 -1 85 224)"/><path fill="#fff" fill-rule="evenodd" d="M140.414 155.414h-21.322a6.092 6.092 0 0 0 0 12.184h21.322v21.322a6.092 6.092 0 0 0 12.184 0v-21.322h21.322a6.093 6.093 0 0 0 0-12.184h-21.322v-21.322a6.092 6.092 0 0 0-12.184 0z" clip-rule="evenodd"/></g><defs><filter id="a" width="168.24" height="168.24" x="62.88" y="83" color-interpolation-filters="sRGB" filterUnits="userSpaceOnUse"><feFlood flood-opacity="0" result="BackgroundImageFix"/><feColorMatrix in="SourceAlpha" result="hardAlpha" values="0 0 0 0 0 0 0 0 0 0 0 0 0 0 0 0 0 0 127 0"/><feOffset dy="5.12"/><feGaussianBlur stdDeviation="2.56"/><feColorMatrix values="0 0 0 0 0 0 0 0 0 0 0 0 0 0 0 0 0 0 0.5 0"/><feBlend in2="BackgroundImageFix" result="effect1_dropShadow_3556_39"/><feBlend in="SourceGraphic" in2="effect1_dropShadow_3556_39" result="shape"/></filter></defs></svg>