<svg xmlns="http://www.w3.org/2000/svg" width="256" height="256" fill="none" viewBox="0 0 256 256"><g clip-path="url(#a)"><path fill="#0f0" stroke="#00f" stroke-width="17" d="M72.711 31.705 58.5 18.81V38l.005 120 .001 12.678 11.728-4.815 44.846-18.412.202-.083.198-.094 44.149-20.843 11.506-5.432-9.424-8.55z"/><circle cx="118" cy="162" r="70.5" fill="red" stroke="#00f" stroke-width="17"/><path fill="#f05024" fill-opacity=".8" d="M131.4 115.271 118 162l46.73 13.399a48.6 48.6 0 0 0-4.211-36.966 48.6 48.6 0 0 0-29.118-23.162z"/><path fill="#fcb813" fill-opacity=".8" d="M70.832 150.24 118 162l-11.76 47.168a48.63 48.63 0 0 1-29.908-22.131 48.6 48.6 0 0 1-5.5-36.797"/><path fill="#7eba41" fill-opacity=".8" d="M123.082 113.654 118 161.999l48.345 5.082a48.6 48.6 0 0 0-10.566-35.674 48.6 48.6 0 0 0-32.697-17.753"/><path fill="#32a0da" fill-opacity=".8" d="M69.539 158.186 118 162l-3.814 48.461a48.6 48.6 0 0 1-33.15-16.891 48.6 48.6 0 0 1-11.498-35.384"/></g><defs><clipPath id="a"><path fill="#fff" d="M0 0h256v256H0z"/></clipPath></defs></svg>