<svg xmlns="http://www.w3.org/2000/svg" width="256" height="256" fill="none" viewBox="0 0 256 256"><g filter="url(#a)"><path fill="red" d="M218 128c0 49.706-40.294 90-90 90s-90-40.294-90-90 40.294-90 90-90 90 40.294 90 90"/><path stroke="#00f" stroke-width="17" d="M128 226.5c54.4 0 98.5-44.1 98.5-98.5S182.4 29.5 128 29.5 29.5 73.6 29.5 128s44.1 98.5 98.5 98.5Z"/></g><path fill="#f05024" fill-opacity=".8" d="m200.02 139.408-72.018-11.407-11.408 72.019a72.9 72.9 0 0 0 54.267-13.027 72.94 72.94 0 0 0 29.16-47.585z"/><path fill="#fcb813" fill-opacity=".8" d="M197.732 106.682 128 128l-21.319-69.731a72.92 72.92 0 0 1 91.05 48.413z"/><path fill="#7eba41" fill-opacity=".8" d="M71.332 173.888 128 128 82.112 71.333a72.917 72.917 0 0 0-10.78 102.555"/><path fill="#32a0da" fill-opacity=".8" d="M95.464 193.256 128 128l65.256 32.536a72.94 72.94 0 0 1-42.119 36.613 72.93 72.93 0 0 1-55.673-3.893"/><defs><filter id="a" width="222" height="222" x="17" y="21" color-interpolation-filters="sRGB" filterUnits="userSpaceOnUse"><feFlood flood-opacity="0" result="BackgroundImageFix"/><feColorMatrix in="SourceAlpha" result="hardAlpha" values="0 0 0 0 0 0 0 0 0 0 0 0 0 0 0 0 0 0 127 0"/><feOffset dy="4"/><feGaussianBlur stdDeviation="2"/><feComposite in2="hardAlpha" operator="out"/><feColorMatrix values="0 0 0 0 0 0 0 0 0 0 0 0 0 0 0 0 0 0 0.25 0"/><feBlend in2="BackgroundImageFix" result="effect1_dropShadow_3519_2770"/><feBlend in="SourceGraphic" in2="effect1_dropShadow_3519_2770" result="shape"/></filter></defs></svg>